# xmcd
#
# Track frame offsets:
#	150
#	20665
#	61134
#	87364
#	120567
#	145212
#
# Disc length: 2389 seconds
#
# Revision: 0
# Processed by: cddbd v1.4PL0 Copyright (c) Steve Scherf et al.
# Submitted via: MusicWizard 6.0.2
#
DISCID=4b095306
DTITLE=Moore, Gary - Back To The Blues (Live Montreux Blues Festival July 7th 1990) Disc 2
DYEAR=1990
DGENRE=Blues
TTITLE0=Too Tired (With Albert Collins)
TTITLE1=Cold Cold Feeling (With Albert Collins)
TTITLE2=Further On Up The Road (With Albert Collins)
TTITLE3=King Of The Blues (With Albert Collins)
TTITLE4=Stop Messin' Around (With Albert Collins)
TTITLE5=The Blues Is Alright (With Albert Collins)
EXTD=
EXTT0=
EXTT1=
EXTT2=
EXTT3=
EXTT4=
EXTT5=
PLAYORDER=
